# xmcd CD database file
# Copyright (C) 1993-1996 Ti Kan
#
# Track frame offsets:
#	182
#	16155
#	39045
#	60005
#	80922
#	98145
#	120187
#	144665
#	161485
#	185047
#	197375
#	218927
#	230960
#	244885
#	270550
#	288737
#
# Disc length: 4177 seconds
#
# Revision: 1
# Processed by: cddbd v1.4b41PL1 Copyright (c) Steve Scherf et al.
# Submitted via: CDValet v3.30 - Copyright (c) 1997 Greg Leichner
#
DISCID=dc104f10
DTITLE=John Lee Hooker - Get Back Home
DYEAR=1900
DGENRE=
TTITLE0=Get Back Home In The USA
TTITLE1=T.B. Is Killing Me
TTITLE2=Cold Chills
TTITLE3=I Had A Dream Last Night
TTITLE4=Love Affair
TTITLE5=Little Rain
TTITLE6=When My First Wife Left Me
TTITLE7=Big Boss Lady
TTITLE8=Back To Your Mother
TTITLE9=Boogie Chillen
TTITLE10=Sittin' Here Thinkin'
TTITLE11=I Wanna' Ramble
TTITLE12=Hi Heel Sneakers
TTITLE13=I'm So Worried Baby
TTITLE14=I'm Going Upstairs
TTITLE15=Crazy 'Bout Yoy
EXTD=
EXTT0=
EXTT1=
EXTT2=
EXTT3=
EXTT4=
EXTT5=
EXTT6=
EXTT7=
EXTT8=
EXTT9=
EXTT10=
EXTT11=
EXTT12=
EXTT13=
EXTT14=
EXTT15=
PLAYORDER=
